<svg height="750" viewBox="0 0 165 750" width="165" xmlns="http://www.w3.org/2000/svg">
<line stroke="white" stroke-width="1" x1="135" x2="135" y1="15" y2="30"/>
<circle cx="135" cy="15" fill="white" r="4" stroke="white" stroke-width="1"/>
<line stroke="white" stroke-width="1" x1="135" x2="135" y1="30" y2="45"/>
<circle cx="135" cy="30" fill="white" r="4" stroke="white" stroke-width="1"/>
<line stroke="white" stroke-width="1" x1="135" x2="135" y1="45" y2="90"/>
<path d="M135,45 L135,45 Q135,52.5,82.5,52.5 Q30,52.5,30,60 L30,60" fill="none" stroke="green" stroke-width="1"/>
<circle cx="135" cy="45" fill="white" r="4" stroke="white" stroke-width="1"/>
<line stroke="green" stroke-width="1" x1="30" x2="30" y1="60" y2="75"/>
<circle cx="30" cy="60" fill="green" r="4" stroke="green" stroke-width="1"/>
<line stroke="green" stroke-width="1" x1="30" x2="30" y1="75" y2="255"/>
<path d="M30,75 L30,75 Q30,82.5,82.5,82.5 Q135,82.5,135,90 L135,90" fill="none" stroke="white" stroke-width="1"/>
<circle cx="30" cy="75" fill="white" r="4" stroke="green" stroke-width="1"/>
<line stroke="white" stroke-width="1" x1="135" x2="135" y1="90" y2="105"/>
<circle cx="135" cy="90" fill="white" r="4" stroke="white" stroke-width="1"/>
<line stroke="white" stroke-width="1" x1="135" x2="135" y1="105" y2="180"/>
<path d="M135,105 L135,105 Q135,112.5,75,112.5 Q15,112.5,15,120 L15,120" fill="none" stroke="blue" stroke-width="1"/>
<circle cx="135" cy="105" fill="white" r="4" stroke="white" stroke-width="1"/>
<line stroke="blue" stroke-width="1" x1="15" x2="15" y1="120" y2="195"/>
<path d="M15,120 L15,120 Q15,127.5,52.5,127.5 Q90,127.5,90,135 L90,135" fill="none" stroke="#ff8c00" stroke-width="1"/>
<circle cx="15" cy="120" fill="white" r="4" stroke="blue" stroke-width="1"/>
<line stroke="#ff8c00" stroke-width="1" x1="90" x2="90" y1="135" y2="165"/>
<path d="M90,135 L90,135 Q90,142.5,120,142.5 Q150,142.5,150,150 L150,150" fill="none" stroke="#ff0087" stroke-width="1"/>
<circle cx="90" cy="135" fill="white" r="4" stroke="#ff8c00" stroke-width="1"/>
<path d="M150,150 L150,150 Q150,157.5,120,157.5 Q90,157.5,90,165 L90,165" fill="none" stroke="#ff0087" stroke-width="1"/>
<circle cx="150" cy="150" fill="#ff0087" r="4" stroke="#ff0087" stroke-width="1"/>
<path d="M90,165 L90,180 Q90,187.5,52.5,187.5 Q15,187.5,15,195 L15,195" fill="none" stroke="#ff8c00" stroke-width="1"/>
<circle cx="90" cy="165" fill="#ff8c00" r="4" stroke="#ff8c00" stroke-width="1"/>
<line stroke="white" stroke-width="1" x1="135" x2="135" y1="180" y2="270"/>
<path d="M135,180 L135,180 Q135,187.5,75,187.5 Q15,187.5,15,195 L15,195" fill="none" stroke="blue" stroke-width="1"/>
<circle cx="135" cy="180" fill="white" r="4" stroke="white" stroke-width="1"/>
<line stroke="blue" stroke-width="1" x1="15" x2="15" y1="195" y2="210"/>
<path d="M15,195 L15,195 Q15,202.5,45,202.5 Q75,202.5,75,210 L75,225" fill="none" stroke="purple" stroke-width="1"/>
<circle cx="15" cy="195" fill="white" r="4" stroke="blue" stroke-width="1"/>
<line stroke="blue" stroke-width="1" x1="15" x2="15" y1="210" y2="300"/>
<circle cx="15" cy="210" fill="blue" r="4" stroke="blue" stroke-width="1"/>
<line stroke="purple" stroke-width="1" x1="75" x2="75" y1="225" y2="240"/>
<circle cx="75" cy="225" fill="purple" r="4" stroke="purple" stroke-width="1"/>
<path d="M75,240 L75,285 Q75,292.5,45,292.5 Q15,292.5,15,300 L15,300" fill="none" stroke="purple" stroke-width="1"/>
<circle cx="75" cy="240" fill="purple" r="4" stroke="purple" stroke-width="1"/>
<line stroke="green" stroke-width="1" x1="30" x2="30" y1="255" y2="375"/>
<path d="M30,255 L30,255 Q30,262.5,82.5,262.5 Q135,262.5,135,270 L135,270" fill="none" stroke="white" stroke-width="1"/>
<circle cx="30" cy="255" fill="white" r="4" stroke="green" stroke-width="1"/>
<line stroke="white" stroke-width="1" x1="135" x2="135" y1="270" y2="285"/>
<path d="M135,270 L135,270 Q135,277.5,120,277.5 Q105,277.5,105,285 L105,510" fill="none" stroke="turquoise" stroke-width="1"/>
<circle cx="135" cy="270" fill="white" r="4" stroke="white" stroke-width="1"/>
<line stroke="white" stroke-width="1" x1="135" x2="135" y1="285" y2="315"/>
<path d="M135,285 L135,285 Q135,292.5,75,292.5 Q15,292.5,15,300 L15,300" fill="none" stroke="blue" stroke-width="1"/>
<circle cx="135" cy="285" fill="white" r="4" stroke="white" stroke-width="1"/>
<line stroke="blue" stroke-width="1" x1="15" x2="15" y1="300" y2="330"/>
<path d="M15,300 L15,300 Q15,307.5,30,307.5 Q45,307.5,45,315 L45,630" fill="none" stroke="orange" stroke-width="1"/>
<circle cx="15" cy="300" fill="white" r="4" stroke="blue" stroke-width="1"/>
<line stroke="white" stroke-width="1" x1="135" x2="135" y1="315" y2="345"/>
<path d="M135,315 L135,330 Q135,337.5,75,337.5 Q15,337.5,15,345 L15,360" fill="none" stroke="blue" stroke-width="1"/>
<circle cx="135" cy="315" fill="white" r="4" stroke="white" stroke-width="1"/>
<line stroke="blue" stroke-width="1" x1="15" x2="15" y1="330" y2="360"/>
<path d="M15,330 L15,330 Q15,337.5,75,337.5 Q135,337.5,135,345 L135,345" fill="none" stroke="white" stroke-width="1"/>
<circle cx="15" cy="330" fill="white" r="4" stroke="blue" stroke-width="1"/>
<line stroke="white" stroke-width="1" x1="135" x2="135" y1="345" y2="405"/>
<circle cx="135" cy="345" fill="white" r="4" stroke="white" stroke-width="1"/>
<line stroke="blue" stroke-width="1" x1="15" x2="15" y1="360" y2="390"/>
<circle cx="15" cy="360" fill="blue" r="4" stroke="blue" stroke-width="1"/>
<line stroke="green" stroke-width="1" x1="30" x2="30" y1="375" y2="435"/>
<path d="M30,375 L30,375 Q30,382.5,82.5,382.5 Q135,382.5,135,390 L135,405" fill="none" stroke="white" stroke-width="1"/>
<circle cx="30" cy="375" fill="white" r="4" stroke="green" stroke-width="1"/>
<line stroke="blue" stroke-width="1" x1="15" x2="15" y1="390" y2="465"/>
<path d="M15,390 L15,390 Q15,397.5,75,397.5 Q135,397.5,135,405 L135,405" fill="none" stroke="white" stroke-width="1"/>
<circle cx="15" cy="390" fill="white" r="4" stroke="blue" stroke-width="1"/>
<line stroke="white" stroke-width="1" x1="135" x2="135" y1="405" y2="420"/>
<circle cx="135" cy="405" fill="white" r="4" stroke="white" stroke-width="1"/>
<line stroke="white" stroke-width="1" x1="135" x2="135" y1="420" y2="450"/>
<path d="M135,420 L135,420 Q135,427.5,82.5,427.5 Q30,427.5,30,435 L30,435" fill="none" stroke="green" stroke-width="1"/>
<circle cx="135" cy="420" fill="white" r="4" stroke="white" stroke-width="1"/>
<line stroke="green" stroke-width="1" x1="30" x2="30" y1="435" y2="540"/>
<circle cx="30" cy="435" fill="green" r="4" stroke="green" stroke-width="1"/>
<line stroke="white" stroke-width="1" x1="135" x2="135" y1="450" y2="480"/>
<path d="M135,450 L135,450 Q135,457.5,75,457.5 Q15,457.5,15,465 L15,465" fill="none" stroke="blue" stroke-width="1"/>
<circle cx="135" cy="450" fill="white" r="4" stroke="white" stroke-width="1"/>
<line stroke="blue" stroke-width="1" x1="15" x2="15" y1="465" y2="645"/>
<circle cx="15" cy="465" fill="blue" r="4" stroke="blue" stroke-width="1"/>
<line stroke="white" stroke-width="1" x1="135" x2="135" y1="480" y2="495"/>
<path d="M135,480 L135,480 Q135,487.5,82.5,487.5 Q30,487.5,30,495 L30,540" fill="none" stroke="green" stroke-width="1"/>
<circle cx="135" cy="480" fill="white" r="4" stroke="white" stroke-width="1"/>
<line stroke="white" stroke-width="1" x1="135" x2="135" y1="495" y2="720"/>
<path d="M135,495 L135,495 Q135,502.5,75,502.5 Q15,502.5,15,510 L15,645" fill="none" stroke="blue" stroke-width="1"/>
<circle cx="135" cy="495" fill="white" r="4" stroke="white" stroke-width="1"/>
<path d="M105,510 L105,525 Q105,532.5,67.5,532.5 Q30,532.5,30,540 L30,540" fill="none" stroke="turquoise" stroke-width="1"/>
<circle cx="105" cy="510" fill="turquoise" r="4" stroke="turquoise" stroke-width="1"/>
<path d="M120,525 L120,525 Q120,532.5,75,532.5 Q30,532.5,30,540 L30,540" fill="none" stroke="gray" stroke-width="1"/>
<circle cx="120" cy="525" fill="gray" r="4" stroke="gray" stroke-width="1"/>
<line stroke="green" stroke-width="1" x1="30" x2="30" y1="540" y2="555"/>
<circle cx="30" cy="540" fill="green" r="4" stroke="green" stroke-width="1"/>
<line stroke="green" stroke-width="1" x1="30" x2="30" y1="555" y2="570"/>
<circle cx="30" cy="555" fill="green" r="4" stroke="green" stroke-width="1"/>
<line stroke="green" stroke-width="1" x1="30" x2="30" y1="570" y2="585"/>
<circle cx="30" cy="570" fill="green" r="4" stroke="green" stroke-width="1"/>
<line stroke="green" stroke-width="1" x1="30" x2="30" y1="585" y2="600"/>
<circle cx="30" cy="585" fill="green" r="4" stroke="green" stroke-width="1"/>
<path d="M30,600 L30,705 Q30,712.5,82.5,712.5 Q135,712.5,135,720 L135,720" fill="none" stroke="green" stroke-width="1"/>
<circle cx="30" cy="600" fill="green" r="4" stroke="green" stroke-width="1"/>
<path d="M60,615 L60,630 Q60,637.5,37.5,637.5 Q15,637.5,15,645 L15,645" fill="none" stroke="red" stroke-width="1"/>
<circle cx="60" cy="615" fill="red" r="4" stroke="red" stroke-width="1"/>
<path d="M45,630 L45,630 Q45,637.5,30,637.5 Q15,637.5,15,645 L15,645" fill="none" stroke="orange" stroke-width="1"/>
<circle cx="45" cy="630" fill="orange" r="4" stroke="orange" stroke-width="1"/>
<line stroke="blue" stroke-width="1" x1="15" x2="15" y1="645" y2="660"/>
<circle cx="15" cy="645" fill="blue" r="4" stroke="blue" stroke-width="1"/>
<line stroke="blue" stroke-width="1" x1="15" x2="15" y1="660" y2="675"/>
<circle cx="15" cy="660" fill="blue" r="4" stroke="blue" stroke-width="1"/>
<line stroke="blue" stroke-width="1" x1="15" x2="15" y1="675" y2="690"/>
<circle cx="15" cy="675" fill="blue" r="4" stroke="blue" stroke-width="1"/>
<line stroke="blue" stroke-width="1" x1="15" x2="15" y1="690" y2="705"/>
<circle cx="15" cy="690" fill="blue" r="4" stroke="blue" stroke-width="1"/>
<path d="M15,705 L15,705 Q15,712.5,75,712.5 Q135,712.5,135,720 L135,720" fill="none" stroke="blue" stroke-width="1"/>
<circle cx="15" cy="705" fill="blue" r="4" stroke="blue" stroke-width="1"/>
<circle cx="135" cy="720" fill="white" r="4" stroke="white" stroke-width="1"/>
</svg>
