<svg height="360" viewBox="0 0 643 360" width="643" xmlns="http://www.w3.org/2000/svg">
<line stroke="green" stroke-width="1" x1="30" x2="30" y1="15" y2="30"/>
<circle cx="30" cy="15" fill="green" r="4" stroke="green" stroke-width="1"/>
<line stroke="green" stroke-width="1" x1="30" x2="30" y1="30" y2="90"/>
<path d="M30,30 L30,30 Q30,37.5,22.5,37.5 Q15,37.5,15,45 L15,45" fill="none" stroke="white" stroke-width="1"/>
<circle cx="30" cy="30" fill="white" r="4" stroke="green" stroke-width="1"/>
<line stroke="white" stroke-width="1" x1="15" x2="15" y1="45" y2="60"/>
<circle cx="15" cy="45" fill="white" r="4" stroke="white" stroke-width="1"/>
<line stroke="white" stroke-width="1" x1="15" x2="15" y1="60" y2="75"/>
<line stroke="white" stroke-width="1" x1="15" x2="15" y1="60" y2="120"/>
<circle cx="15" cy="60" fill="white" r="4" stroke="white" stroke-width="1"/>
<line stroke="white" stroke-width="1" x1="15" x2="15" y1="75" y2="105"/>
<line stroke="white" stroke-width="1" x1="15" x2="15" y1="75" y2="120"/>
<circle cx="15" cy="75" fill="white" r="4" stroke="white" stroke-width="1"/>
<line stroke="green" stroke-width="1" x1="30" x2="30" y1="90" y2="135"/>
<path d="M30,90 L30,90 Q30,97.5,22.5,97.5 Q15,97.5,15,105 L15,105" fill="none" stroke="white" stroke-width="1"/>
<circle cx="30" cy="90" fill="white" r="4" stroke="green" stroke-width="1"/>
<line stroke="white" stroke-width="1" x1="15" x2="15" y1="105" y2="120"/>
<path d="M15,105 L15,105 Q15,112.5,30,112.5 Q45,112.5,45,120 L45,240" fill="none" stroke="turquoise" stroke-width="1"/>
<circle cx="15" cy="105" fill="white" r="4" stroke="white" stroke-width="1"/>
<line stroke="white" stroke-width="1" x1="15" x2="15" y1="120" y2="150"/>
<path d="M15,120 L15,315 Q15,322.5,22.5,322.5 Q30,322.5,30,330 L30,330" fill="none" stroke="green" stroke-width="1"/>
<circle cx="15" cy="120" fill="white" r="4" stroke="white" stroke-width="1"/>
<line stroke="green" stroke-width="1" x1="30" x2="30" y1="135" y2="195"/>
<path d="M30,135 L30,135 Q30,142.5,52.5,142.5 Q75,142.5,75,150 L75,165" fill="none" stroke="gray" stroke-width="1"/>
<circle cx="30" cy="135" fill="white" r="4" stroke="green" stroke-width="1"/>
<path d="M15,150 L15,315 Q15,322.5,22.5,322.5 Q30,322.5,30,330 L30,330" fill="none" stroke="green" stroke-width="1"/>
<path d="M15,150 L15,150 Q15,157.5,45,157.5 Q75,157.5,75,165 L75,165" fill="none" stroke="gray" stroke-width="1"/>
<circle cx="15" cy="150" fill="white" r="4" stroke="white" stroke-width="1"/>
<line stroke="gray" stroke-width="1" x1="75" x2="75" y1="165" y2="180"/>
<circle cx="75" cy="165" fill="gray" r="4" stroke="gray" stroke-width="1"/>
<line stroke="gray" stroke-width="1" x1="75" x2="75" y1="180" y2="210"/>
<path d="M75,180 L75,180 Q75,187.5,52.5,187.5 Q30,187.5,30,195 L30,195" fill="none" stroke="green" stroke-width="1"/>
<circle cx="75" cy="180" fill="white" r="4" stroke="gray" stroke-width="1"/>
<line stroke="green" stroke-width="1" x1="30" x2="30" y1="195" y2="270"/>
<circle cx="30" cy="195" fill="green" r="4" stroke="green" stroke-width="1"/>
<line stroke="gray" stroke-width="1" x1="75" x2="75" y1="210" y2="225"/>
<path d="M75,210 L75,315 Q75,322.5,52.5,322.5 Q30,322.5,30,330 L30,330" fill="none" stroke="green" stroke-width="1"/>
<circle cx="75" cy="210" fill="white" r="4" stroke="gray" stroke-width="1"/>
<path d="M75,225 L75,315 Q75,322.5,52.5,322.5 Q30,322.5,30,330 L30,330" fill="none" stroke="green" stroke-width="1"/>
<path d="M75,225 L75,225 Q75,232.5,52.5,232.5 Q30,232.5,30,240 L30,270" fill="none" stroke="green" stroke-width="1"/>
<circle cx="75" cy="225" fill="white" r="4" stroke="gray" stroke-width="1"/>
<path d="M45,240 L45,255 Q45,262.5,37.5,262.5 Q30,262.5,30,270 L30,270" fill="none" stroke="turquoise" stroke-width="1"/>
<circle cx="45" cy="240" fill="turquoise" r="4" stroke="turquoise" stroke-width="1"/>
<path d="M60,255 L60,255 Q60,262.5,45,262.5 Q30,262.5,30,270 L30,270" fill="none" stroke="gray" stroke-width="1"/>
<circle cx="60" cy="255" fill="gray" r="4" stroke="gray" stroke-width="1"/>
<line stroke="green" stroke-width="1" x1="30" x2="30" y1="270" y2="285"/>
<circle cx="30" cy="270" fill="green" r="4" stroke="green" stroke-width="1"/>
<line stroke="green" stroke-width="1" x1="30" x2="30" y1="285" y2="300"/>
<circle cx="30" cy="285" fill="green" r="4" stroke="green" stroke-width="1"/>
<line stroke="green" stroke-width="1" x1="30" x2="30" y1="300" y2="315"/>
<circle cx="30" cy="300" fill="green" r="4" stroke="green" stroke-width="1"/>
<line stroke="green" stroke-width="1" x1="30" x2="30" y1="315" y2="330"/>
<circle cx="30" cy="315" fill="green" r="4" stroke="green" stroke-width="1"/>
<circle cx="30" cy="330" fill="green" r="4" stroke="green" stroke-width="1"/>
<text x="105" y="19" fill="#c4c4c4" font-family="monospace" font-size="11">258390a Fred: polish greeting (sparkle) [Fred Frontend]</text>
<text x="105" y="34" fill="#c4c4c4" font-family="monospace" font-size="11">25efa09 Fred: merge greeting bump [Fred Frontend]</text>
<text x="105" y="49" fill="#c4c4c4" font-family="monospace" font-size="11">3eda8bd Mira: frontend greeting mentions /payments [Mira Mono]</text>
<text x="105" y="64" fill="#c4c4c4" font-family="monospace" font-size="11">f4312e8 Merge: pick up /payments rollout [Mira Mono]</text>
<text x="105" y="79" fill="#c4c4c4" font-family="monospace" font-size="11">2a549ec Merge: Bea's cors + ratelimit notes [Mira Mono]</text>
<text x="105" y="94" fill="#c4c4c4" font-family="monospace" font-size="11">f415ca9 Fred: pick up Mira's dashboard ship [Fred Frontend]</text>
<text x="105" y="109" fill="#c4c4c4" font-family="monospace" font-size="11">5514eba Mira: ship frontend/feature/dashboard [Mira Mono]</text>
<text x="105" y="124" fill="#c4c4c4" font-family="monospace" font-size="11">6981406 Bea: ship feature/auth [Bea Backend]</text>
<text x="105" y="139" fill="#c4c4c4" font-family="monospace" font-size="11">0ca3972 Merge: pick up Mira's brand doc [Fred Frontend]</text>
<text x="105" y="154" fill="#c4c4c4" font-family="monospace" font-size="11">a3cf2e7 Merge: pick up Mira's API doc [Bea Backend]</text>
<text x="105" y="169" fill="#c4c4c4" font-family="monospace" font-size="11">2fcc1d6 Mira: cross-cutting docs (root + backend/ + frontend/) [Mira Mono]</text>
<text x="105" y="184" fill="#c4c4c4" font-family="monospace" font-size="11">c69953d Merge: pick up Fred's footer styling [Mira Mono]</text>
<text x="105" y="199" fill="#c4c4c4" font-family="monospace" font-size="11">800f7ed Add footer styling [Fred Frontend]</text>
<text x="105" y="214" fill="#c4c4c4" font-family="monospace" font-size="11">e59d263 Merge: pick up Bea's /health [Mira Mono]</text>
<text x="105" y="229" fill="#c4c4c4" font-family="monospace" font-size="11">7acee44 Merge: bootstrap frontend [Mira Mono]</text>
<text x="105" y="244" fill="#c4c4c4" font-family="monospace" font-size="11">7bc4218 WIP: dashboard scaffold [Fred Frontend]</text>
<text x="105" y="259" fill="#c4c4c4" font-family="monospace" font-size="11">1afd1c1 Fix header overflow [Fred Frontend]</text>
<text x="105" y="274" fill="#c4c4c4" font-family="monospace" font-size="11">dce1b98 Add greeting helper [Fred Frontend]</text>
<text x="105" y="289" fill="#c4c4c4" font-family="monospace" font-size="11">ad67e33 Add app.js [Fred Frontend]</text>
<text x="105" y="304" fill="#c4c4c4" font-family="monospace" font-size="11">3dea0db Add main.css [Fred Frontend]</text>
<text x="105" y="319" fill="#c4c4c4" font-family="monospace" font-size="11">0149826 Add index.html [Fred Frontend]</text>
<text x="105" y="334" fill="#c4c4c4" font-family="monospace" font-size="11">f4ab96d Initial commit [Fred Frontend]</text>
</svg>
