<svg height="480" viewBox="0 0 673 480" width="673" xmlns="http://www.w3.org/2000/svg">
<line stroke="blue" stroke-width="1" x1="45" x2="45" y1="15" y2="90"/>
<path d="M45,15 L45,15 Q45,22.5,75,22.5 Q105,22.5,105,30 L105,30" fill="none" stroke="#ff8c00" stroke-width="1"/>
<circle cx="45" cy="15" fill="white" r="4" stroke="blue" stroke-width="1"/>
<line stroke="#ff8c00" stroke-width="1" x1="105" x2="105" y1="30" y2="60"/>
<path d="M105,30 L105,30 Q105,37.5,67.5,37.5 Q30,37.5,30,45 L30,45" fill="none" stroke="#ff0087" stroke-width="1"/>
<circle cx="105" cy="30" fill="white" r="4" stroke="#ff8c00" stroke-width="1"/>
<path d="M30,45 L30,45 Q30,52.5,67.5,52.5 Q105,52.5,105,60 L105,60" fill="none" stroke="#ff0087" stroke-width="1"/>
<circle cx="30" cy="45" fill="#ff0087" r="4" stroke="#ff0087" stroke-width="1"/>
<path d="M105,60 L105,75 Q105,82.5,75,82.5 Q45,82.5,45,90 L45,90" fill="none" stroke="#ff8c00" stroke-width="1"/>
<circle cx="105" cy="60" fill="#ff8c00" r="4" stroke="#ff8c00" stroke-width="1"/>
<line stroke="white" stroke-width="1" x1="15" x2="15" y1="75" y2="150"/>
<path d="M15,75 L15,75 Q15,82.5,30,82.5 Q45,82.5,45,90 L45,90" fill="none" stroke="blue" stroke-width="1"/>
<circle cx="15" cy="75" fill="white" r="4" stroke="white" stroke-width="1"/>
<line stroke="blue" stroke-width="1" x1="45" x2="45" y1="90" y2="105"/>
<path d="M45,90 L45,90 Q45,97.5,67.5,97.5 Q90,97.5,90,105 L90,120" fill="none" stroke="purple" stroke-width="1"/>
<circle cx="45" cy="90" fill="white" r="4" stroke="blue" stroke-width="1"/>
<line stroke="blue" stroke-width="1" x1="45" x2="45" y1="105" y2="180"/>
<circle cx="45" cy="105" fill="blue" r="4" stroke="blue" stroke-width="1"/>
<line stroke="purple" stroke-width="1" x1="90" x2="90" y1="120" y2="135"/>
<circle cx="90" cy="120" fill="purple" r="4" stroke="purple" stroke-width="1"/>
<path d="M90,135 L90,165 Q90,172.5,67.5,172.5 Q45,172.5,45,180 L45,180" fill="none" stroke="purple" stroke-width="1"/>
<circle cx="90" cy="135" fill="purple" r="4" stroke="purple" stroke-width="1"/>
<line stroke="white" stroke-width="1" x1="15" x2="15" y1="150" y2="165"/>
<path d="M15,150 L15,435 Q15,442.5,30,442.5 Q45,442.5,45,450 L45,450" fill="none" stroke="blue" stroke-width="1"/>
<circle cx="15" cy="150" fill="white" r="4" stroke="white" stroke-width="1"/>
<line stroke="white" stroke-width="1" x1="15" x2="15" y1="165" y2="195"/>
<path d="M15,165 L15,165 Q15,172.5,30,172.5 Q45,172.5,45,180 L45,180" fill="none" stroke="blue" stroke-width="1"/>
<circle cx="15" cy="165" fill="white" r="4" stroke="white" stroke-width="1"/>
<line stroke="blue" stroke-width="1" x1="45" x2="45" y1="180" y2="210"/>
<path d="M45,180 L45,180 Q45,187.5,52.5,187.5 Q60,187.5,60,195 L60,360" fill="none" stroke="orange" stroke-width="1"/>
<circle cx="45" cy="180" fill="white" r="4" stroke="blue" stroke-width="1"/>
<line stroke="white" stroke-width="1" x1="15" x2="15" y1="195" y2="225"/>
<path d="M15,195 L15,210 Q15,217.5,30,217.5 Q45,217.5,45,225 L45,240" fill="none" stroke="blue" stroke-width="1"/>
<circle cx="15" cy="195" fill="white" r="4" stroke="white" stroke-width="1"/>
<line stroke="blue" stroke-width="1" x1="45" x2="45" y1="210" y2="240"/>
<path d="M45,210 L45,210 Q45,217.5,30,217.5 Q15,217.5,15,225 L15,225" fill="none" stroke="white" stroke-width="1"/>
<circle cx="45" cy="210" fill="white" r="4" stroke="blue" stroke-width="1"/>
<line stroke="white" stroke-width="1" x1="15" x2="15" y1="225" y2="270"/>
<circle cx="15" cy="225" fill="white" r="4" stroke="white" stroke-width="1"/>
<line stroke="blue" stroke-width="1" x1="45" x2="45" y1="240" y2="255"/>
<circle cx="45" cy="240" fill="blue" r="4" stroke="blue" stroke-width="1"/>
<line stroke="blue" stroke-width="1" x1="45" x2="45" y1="255" y2="315"/>
<path d="M45,255 L45,255 Q45,262.5,30,262.5 Q15,262.5,15,270 L15,270" fill="none" stroke="white" stroke-width="1"/>
<circle cx="45" cy="255" fill="white" r="4" stroke="blue" stroke-width="1"/>
<line stroke="white" stroke-width="1" x1="15" x2="15" y1="270" y2="285"/>
<circle cx="15" cy="270" fill="white" r="4" stroke="white" stroke-width="1"/>
<line stroke="white" stroke-width="1" x1="15" x2="15" y1="285" y2="300"/>
<path d="M15,285 L15,435 Q15,442.5,30,442.5 Q45,442.5,45,450 L45,450" fill="none" stroke="blue" stroke-width="1"/>
<circle cx="15" cy="285" fill="white" r="4" stroke="white" stroke-width="1"/>
<line stroke="white" stroke-width="1" x1="15" x2="15" y1="300" y2="330"/>
<path d="M15,300 L15,300 Q15,307.5,30,307.5 Q45,307.5,45,315 L45,315" fill="none" stroke="blue" stroke-width="1"/>
<circle cx="15" cy="300" fill="white" r="4" stroke="white" stroke-width="1"/>
<line stroke="blue" stroke-width="1" x1="45" x2="45" y1="315" y2="390"/>
<circle cx="45" cy="315" fill="blue" r="4" stroke="blue" stroke-width="1"/>
<line stroke="white" stroke-width="1" x1="15" x2="15" y1="330" y2="345"/>
<path d="M15,330 L15,435 Q15,442.5,30,442.5 Q45,442.5,45,450 L45,450" fill="none" stroke="blue" stroke-width="1"/>
<circle cx="15" cy="330" fill="white" r="4" stroke="white" stroke-width="1"/>
<path d="M15,345 L15,435 Q15,442.5,30,442.5 Q45,442.5,45,450 L45,450" fill="none" stroke="blue" stroke-width="1"/>
<path d="M15,345 L15,345 Q15,352.5,30,352.5 Q45,352.5,45,360 L45,390" fill="none" stroke="blue" stroke-width="1"/>
<circle cx="15" cy="345" fill="white" r="4" stroke="white" stroke-width="1"/>
<path d="M60,360 L60,375 Q60,382.5,52.5,382.5 Q45,382.5,45,390 L45,390" fill="none" stroke="orange" stroke-width="1"/>
<circle cx="60" cy="360" fill="orange" r="4" stroke="orange" stroke-width="1"/>
<path d="M75,375 L75,375 Q75,382.5,60,382.5 Q45,382.5,45,390 L45,390" fill="none" stroke="red" stroke-width="1"/>
<circle cx="75" cy="375" fill="red" r="4" stroke="red" stroke-width="1"/>
<line stroke="blue" stroke-width="1" x1="45" x2="45" y1="390" y2="405"/>
<circle cx="45" cy="390" fill="blue" r="4" stroke="blue" stroke-width="1"/>
<line stroke="blue" stroke-width="1" x1="45" x2="45" y1="405" y2="420"/>
<circle cx="45" cy="405" fill="blue" r="4" stroke="blue" stroke-width="1"/>
<line stroke="blue" stroke-width="1" x1="45" x2="45" y1="420" y2="435"/>
<circle cx="45" cy="420" fill="blue" r="4" stroke="blue" stroke-width="1"/>
<line stroke="blue" stroke-width="1" x1="45" x2="45" y1="435" y2="450"/>
<circle cx="45" cy="435" fill="blue" r="4" stroke="blue" stroke-width="1"/>
<circle cx="45" cy="450" fill="blue" r="4" stroke="blue" stroke-width="1"/>
<text x="135" y="19" fill="#c4c4c4" font-family="monospace" font-size="11">2c7898a Bea: ship feature/payments [Bea Backend]</text>
<text x="135" y="34" fill="#c4c4c4" font-family="monospace" font-size="11">da3c645 Bea: pick up Mira's wiring [Bea Backend]</text>
<text x="135" y="49" fill="#c4c4c4" font-family="monospace" font-size="11">3a11249 Mira: wire /payments route into server.js [Mira Mono]</text>
<text x="135" y="64" fill="#c4c4c4" font-family="monospace" font-size="11">8883e08 Bea: scaffold /payments route [Bea Backend]</text>
<text x="135" y="79" fill="#c4c4c4" font-family="monospace" font-size="11">35778db Merge: Bea's cors + ratelimit notes [Mira Mono]</text>
<text x="135" y="94" fill="#c4c4c4" font-family="monospace" font-size="11">6601562 Bea: ship feature/cors [Bea Backend]</text>
<text x="135" y="109" fill="#c4c4c4" font-family="monospace" font-size="11">c5cdeb3 Bea: notes on rate limiting [Bea Backend]</text>
<text x="135" y="124" fill="#c4c4c4" font-family="monospace" font-size="11">fee8f03 Bea: WIP cors handle preflight [Bea Backend]</text>
<text x="135" y="139" fill="#c4c4c4" font-family="monospace" font-size="11">8f2c56b Bea: WIP cors middleware skeleton [Bea Backend]</text>
<text x="135" y="154" fill="#c4c4c4" font-family="monospace" font-size="11">9511e01 Mira: ship frontend/feature/dashboard [Mira Mono]</text>
<text x="135" y="169" fill="#c4c4c4" font-family="monospace" font-size="11">97ebc87 Merge: Bea shipped feature/auth [Mira Mono]</text>
<text x="135" y="184" fill="#c4c4c4" font-family="monospace" font-size="11">b5d80e7 Bea: ship feature/auth [Bea Backend]</text>
<text x="135" y="199" fill="#c4c4c4" font-family="monospace" font-size="11">36bc03c Mira: merge shadow (concurrent) [Mira Mono]</text>
<text x="135" y="214" fill="#c4c4c4" font-family="monospace" font-size="11">be6b51e Bea: merge shadow (concurrent) [Bea Backend]</text>
<text x="135" y="229" fill="#c4c4c4" font-family="monospace" font-size="11">d4d1b59 Mira: bump backend greeting to v2 [Mira Mono]</text>
<text x="135" y="244" fill="#c4c4c4" font-family="monospace" font-size="11">b574d1e Bea: add /version route [Bea Backend]</text>
<text x="135" y="259" fill="#c4c4c4" font-family="monospace" font-size="11">3737854 Merge: pick up Mira's API doc [Bea Backend]</text>
<text x="135" y="274" fill="#c4c4c4" font-family="monospace" font-size="11">a6d8f30 Mira: cross-cutting docs (root + backend/ + frontend/) [Mira Mono]</text>
<text x="135" y="289" fill="#c4c4c4" font-family="monospace" font-size="11">5a0b239 Merge: pick up Fred's footer styling [Mira Mono]</text>
<text x="135" y="304" fill="#c4c4c4" font-family="monospace" font-size="11">1bb1320 Merge: pick up Bea's /health [Mira Mono]</text>
<text x="135" y="319" fill="#c4c4c4" font-family="monospace" font-size="11">88f8b84 Add /health route [Bea Backend]</text>
<text x="135" y="334" fill="#c4c4c4" font-family="monospace" font-size="11">b2e40d5 Merge: bootstrap frontend [Mira Mono]</text>
<text x="135" y="349" fill="#c4c4c4" font-family="monospace" font-size="11">66363c2 Merge: bootstrap backend [Mira Mono]</text>
<text x="135" y="364" fill="#c4c4c4" font-family="monospace" font-size="11">1f7470c WIP: auth middleware [Bea Backend]</text>
<text x="135" y="379" fill="#c4c4c4" font-family="monospace" font-size="11">c86020a WIP: db driver [Bea Backend]</text>
<text x="135" y="394" fill="#c4c4c4" font-family="monospace" font-size="11">ce0fced Add greeting helper [Bea Backend]</text>
<text x="135" y="409" fill="#c4c4c4" font-family="monospace" font-size="11">8d8bc51 Add db config [Bea Backend]</text>
<text x="135" y="424" fill="#c4c4c4" font-family="monospace" font-size="11">9c8760b Add /users route [Bea Backend]</text>
<text x="135" y="439" fill="#c4c4c4" font-family="monospace" font-size="11">90e24a9 Add server skeleton [Bea Backend]</text>
<text x="135" y="454" fill="#c4c4c4" font-family="monospace" font-size="11">2e29e76 Initial commit [Bea Backend]</text>
</svg>
