<svg height="360" viewBox="0 0 90 360" width="90" xmlns="http://www.w3.org/2000/svg">
<line stroke="green" stroke-width="1" x1="30" x2="30" y1="15" y2="30"/>
<circle cx="30" cy="15" fill="green" r="4" stroke="green" stroke-width="1"/>
<line stroke="green" stroke-width="1" x1="30" x2="30" y1="30" y2="90"/>
<path d="M30,30 L30,30 Q30,37.5,22.5,37.5 Q15,37.5,15,45 L15,45" fill="none" stroke="white" stroke-width="1"/>
<circle cx="30" cy="30" fill="white" r="4" stroke="green" stroke-width="1"/>
<line stroke="white" stroke-width="1" x1="15" x2="15" y1="45" y2="60"/>
<circle cx="15" cy="45" fill="white" r="4" stroke="white" stroke-width="1"/>
<line stroke="white" stroke-width="1" x1="15" x2="15" y1="60" y2="75"/>
<line stroke="white" stroke-width="1" x1="15" x2="15" y1="60" y2="120"/>
<circle cx="15" cy="60" fill="white" r="4" stroke="white" stroke-width="1"/>
<line stroke="white" stroke-width="1" x1="15" x2="15" y1="75" y2="105"/>
<line stroke="white" stroke-width="1" x1="15" x2="15" y1="75" y2="120"/>
<circle cx="15" cy="75" fill="white" r="4" stroke="white" stroke-width="1"/>
<line stroke="green" stroke-width="1" x1="30" x2="30" y1="90" y2="135"/>
<path d="M30,90 L30,90 Q30,97.5,22.5,97.5 Q15,97.5,15,105 L15,105" fill="none" stroke="white" stroke-width="1"/>
<circle cx="30" cy="90" fill="white" r="4" stroke="green" stroke-width="1"/>
<line stroke="white" stroke-width="1" x1="15" x2="15" y1="105" y2="120"/>
<path d="M15,105 L15,105 Q15,112.5,30,112.5 Q45,112.5,45,120 L45,240" fill="none" stroke="turquoise" stroke-width="1"/>
<circle cx="15" cy="105" fill="white" r="4" stroke="white" stroke-width="1"/>
<line stroke="white" stroke-width="1" x1="15" x2="15" y1="120" y2="150"/>
<path d="M15,120 L15,315 Q15,322.5,22.5,322.5 Q30,322.5,30,330 L30,330" fill="none" stroke="green" stroke-width="1"/>
<circle cx="15" cy="120" fill="white" r="4" stroke="white" stroke-width="1"/>
<line stroke="green" stroke-width="1" x1="30" x2="30" y1="135" y2="195"/>
<path d="M30,135 L30,135 Q30,142.5,52.5,142.5 Q75,142.5,75,150 L75,165" fill="none" stroke="gray" stroke-width="1"/>
<circle cx="30" cy="135" fill="white" r="4" stroke="green" stroke-width="1"/>
<path d="M15,150 L15,315 Q15,322.5,22.5,322.5 Q30,322.5,30,330 L30,330" fill="none" stroke="green" stroke-width="1"/>
<path d="M15,150 L15,150 Q15,157.5,45,157.5 Q75,157.5,75,165 L75,165" fill="none" stroke="gray" stroke-width="1"/>
<circle cx="15" cy="150" fill="white" r="4" stroke="white" stroke-width="1"/>
<line stroke="gray" stroke-width="1" x1="75" x2="75" y1="165" y2="180"/>
<circle cx="75" cy="165" fill="gray" r="4" stroke="gray" stroke-width="1"/>
<line stroke="gray" stroke-width="1" x1="75" x2="75" y1="180" y2="210"/>
<path d="M75,180 L75,180 Q75,187.5,52.5,187.5 Q30,187.5,30,195 L30,195" fill="none" stroke="green" stroke-width="1"/>
<circle cx="75" cy="180" fill="white" r="4" stroke="gray" stroke-width="1"/>
<line stroke="green" stroke-width="1" x1="30" x2="30" y1="195" y2="270"/>
<circle cx="30" cy="195" fill="green" r="4" stroke="green" stroke-width="1"/>
<line stroke="gray" stroke-width="1" x1="75" x2="75" y1="210" y2="225"/>
<path d="M75,210 L75,315 Q75,322.5,52.5,322.5 Q30,322.5,30,330 L30,330" fill="none" stroke="green" stroke-width="1"/>
<circle cx="75" cy="210" fill="white" r="4" stroke="gray" stroke-width="1"/>
<path d="M75,225 L75,315 Q75,322.5,52.5,322.5 Q30,322.5,30,330 L30,330" fill="none" stroke="green" stroke-width="1"/>
<path d="M75,225 L75,225 Q75,232.5,52.5,232.5 Q30,232.5,30,240 L30,270" fill="none" stroke="green" stroke-width="1"/>
<circle cx="75" cy="225" fill="white" r="4" stroke="gray" stroke-width="1"/>
<path d="M45,240 L45,255 Q45,262.5,37.5,262.5 Q30,262.5,30,270 L30,270" fill="none" stroke="turquoise" stroke-width="1"/>
<circle cx="45" cy="240" fill="turquoise" r="4" stroke="turquoise" stroke-width="1"/>
<path d="M60,255 L60,255 Q60,262.5,45,262.5 Q30,262.5,30,270 L30,270" fill="none" stroke="gray" stroke-width="1"/>
<circle cx="60" cy="255" fill="gray" r="4" stroke="gray" stroke-width="1"/>
<line stroke="green" stroke-width="1" x1="30" x2="30" y1="270" y2="285"/>
<circle cx="30" cy="270" fill="green" r="4" stroke="green" stroke-width="1"/>
<line stroke="green" stroke-width="1" x1="30" x2="30" y1="285" y2="300"/>
<circle cx="30" cy="285" fill="green" r="4" stroke="green" stroke-width="1"/>
<line stroke="green" stroke-width="1" x1="30" x2="30" y1="300" y2="315"/>
<circle cx="30" cy="300" fill="green" r="4" stroke="green" stroke-width="1"/>
<line stroke="green" stroke-width="1" x1="30" x2="30" y1="315" y2="330"/>
<circle cx="30" cy="315" fill="green" r="4" stroke="green" stroke-width="1"/>
<circle cx="30" cy="330" fill="green" r="4" stroke="green" stroke-width="1"/>
</svg>
